<svg xmlns="http://www.w3.org/2000/svg" xmlns:xlink="http://www.w3.org/1999/xlink" data-name="Layer 1" preserveAspectRatio="xMidYMid meet" version="1.0" viewBox="-0.4 -1.0 128.2 166.4" zoomAndPan="magnify" style="fill: rgb(0, 0, 0);" original_string_length="5449" width="861.2147298206619px" height="1117.1417485881227px">
<path d="M243.8,347.3a78.5,78.5,0,0,1,36.1-27.5,77.3,77.3,0,0,1,36.7-4.3" stroke="#4a68b1" stroke-linecap="round" stroke-linejoin="round" stroke-width="3" transform="translate(-242.2 -313.4)" style="fill: none;"/>
<path d="M324.2,316.7a63.3,63.3,0,0,1,26.6,12.2A62.6,62.6,0,0,1,367,348.2" stroke="#4a68b1" stroke-linecap="round" stroke-linejoin="round" stroke-width="3" transform="translate(-242.2 -313.4)" style="fill: none;"/>
<path d="M264.6,340.9c2.5-2.4,22.7-20.6,51.5-16.1,25.1,3.9,38.4,22.2,40.8,25.5" stroke="#4a68b1" stroke-linecap="round" stroke-linejoin="round" stroke-width="3" transform="translate(-242.2 -313.4)" style="fill: none;"/>
<path d="M256.9,369c.6-1.4,11.7-28.2,40.4-33,25.6-4.3,43.7,12.5,45.5,14.3" stroke="#4a68b1" stroke-linecap="round" stroke-linejoin="round" stroke-width="3" transform="translate(-242.2 -313.4)" style="fill: none;"/>
<path d="M349,357.1a66.7,66.7,0,0,1,8.5,38.2c-.2,4.1-1.1,16.5-11.3,45.8-1.5,4.5-3.8,10.7-6.7,18.1" stroke="#4a68b1" stroke-linecap="round" stroke-linejoin="round" stroke-width="3" transform="translate(-242.2 -313.4)" style="fill: none;"/>
<path d="M297.6,347.3c5-1.1,16.7-2.8,28.1,3.3,18.7,10.1,21.3,32.9,21.7,37,1.1,9.1-.6,18.5-.9,20.2a89.6,89.6,0,0,1-3,11.6" stroke="#4a68b1" stroke-linecap="round" stroke-linejoin="round" stroke-width="3" transform="translate(-242.2 -313.4)" style="fill: none;"/>
<path d="M290.3,349.1a42.8,42.8,0,0,0-13.8,8.6,35,35,0,0,0-9.8,13.4c-1.4,3.6-1.8,6.4-2.4,11.3-1.4,10.6.1,11.3-.9,18-1.3,8.9-5.1,15.8-9.7,24-2.1,3.8-4.1,6.9-5.6,9.1" stroke="#4a68b1" stroke-linecap="round" stroke-linejoin="round" stroke-width="3" transform="translate(-242.2 -313.4)" style="fill: none;"/>
<path d="M300.3,357.1a26.6,26.6,0,0,0-14.3,5.2c-7.1,5.2-9.3,12.7-10.1,15.5s-.6,2.8-1.8,15.3c-.4,3.9-.9,7.8-1.3,11.7-.7,6.8-4.8,18.5-19.2,40" stroke="#4a68b1" stroke-linecap="round" stroke-linejoin="round" stroke-width="3" transform="translate(-242.2 -313.4)" style="fill: none;"/>
<path d="M284.1,388.6c0-1.1,0-11.1,8.3-17.5.8-.6,8.2-6.1,17.7-3.8,7.7,1.8,11.6,7.5,12.9,9.3a24.8,24.8,0,0,1,4.2,12.5,6.6,6.6,0,0,1,.1,1.4s.1,2.9-1.3,9.7h0c-2,8.4-4,16.9-6.1,25.4" stroke="#4a68b1" stroke-linecap="round" stroke-linejoin="round" stroke-width="3" transform="translate(-242.2 -313.4)" style="fill: none;"/>
<path d="M305.7,384.9A117.1,117.1,0,0,1,277,465.3" stroke="#4a68b1" stroke-linecap="round" stroke-linejoin="round" stroke-width="3" transform="translate(-242.2 -313.4)" style="fill: none;"/>
<path d="M293.3,409a39,39,0,0,0,2.5-11c.5-7-1.3-9.2.3-13.4s6.4-9.8,11.6-9.2,8.5,7.6,8.9,8.6a18.2,18.2,0,0,1,1.2,7,88,88,0,0,1-4,23.2c-2.2,7-4.9,14.8-8,23.3" stroke="#4a68b1" stroke-linecap="round" stroke-linejoin="round" stroke-width="3" transform="translate(-242.2 -313.4)" style="fill: none;"/>
<path d="M284.1,397.7a106.4,106.4,0,0,1-22.6,53.8" stroke="#4a68b1" stroke-linecap="round" stroke-linejoin="round" stroke-width="3" transform="translate(-242.2 -313.4)" style="fill: none;"/>
<path d="M291.4,416.7a114.5,114.5,0,0,1-8.8,20.5,112.2,112.2,0,0,1-15,21.1" stroke="#4a68b1" stroke-linecap="round" stroke-linejoin="round" stroke-width="3" transform="translate(-242.2 -313.4)" style="fill: none;"/>
<path d="M303.4,444.8a70.3,70.3,0,0,1-5.5,11,73.6,73.6,0,0,1-9.5,12.6" stroke="#4a68b1" stroke-linecap="round" stroke-linejoin="round" stroke-width="3" transform="translate(-242.2 -313.4)" style="fill: none;"/>
<path d="M319.6,432a177.9,177.9,0,0,1-9.8,22.6,158.9,158.9,0,0,1-9.9,16.8" stroke="#4a68b1" stroke-linecap="round" stroke-linejoin="round" stroke-width="3" transform="translate(-242.2 -313.4)" style="fill: none;"/>
<path d="M308.9,356.8a31.1,31.1,0,0,1,18.4,7.9c7.3,6.8,8.9,15.4,9.7,19.9,1.3,6.9.5,12.1-.6,18.9s-1.9,8.8-5.5,21.1l-5.8,20.2" stroke="#4a68b1" stroke-linecap="round" stroke-linejoin="round" stroke-width="3" transform="translate(-242.2 -313.4)" style="fill: none;"/>
<path d="M80.5 138.1L68.6 158" stroke="#4a68b1" stroke-linecap="round" stroke-linejoin="round" stroke-width="3" style="fill: none;"/>
<path d="M342.8,425.1a155.5,155.5,0,0,1-8.2,24,168.3,168.3,0,0,1-9.5,18.6" stroke="#4a68b1" stroke-linecap="round" stroke-linejoin="round" stroke-width="3" transform="translate(-242.2 -313.4)" style="fill: none;"/>
<path d="M259.1,347.3a51,51,0,0,0-12.6,19.9,52.7,52.7,0,0,0-2.7,20.4" stroke="#4a68b1" stroke-linecap="round" stroke-linejoin="round" stroke-width="3" transform="translate(-242.2 -313.4)" style="fill: none;"/>
<path d="M253.6,376.9a76.8,76.8,0,0,1-1.6,24.2,71.1,71.1,0,0,1-8.2,20.8" stroke="#4a68b1" stroke-linecap="round" stroke-linejoin="round" stroke-width="3" transform="translate(-242.2 -313.4)" style="fill: none;"/>
<path d="M360.6,357.1a52.3,52.3,0,0,1,6.4,15.6,48.9,48.9,0,0,1,1.2,14.9" stroke="#4a68b1" stroke-linecap="round" stroke-linejoin="round" stroke-width="3" transform="translate(-242.2 -313.4)" style="fill: none;"/>
<path d="M367.6,396.2a260.2,260.2,0,0,1-9.6,43,271,271,0,0,1-15.2,37.9" stroke="#4a68b1" stroke-linecap="round" stroke-linejoin="round" stroke-width="3" transform="translate(-242.2 -313.4)" style="fill: none;"/>
<path d="M93.8 153.7L89.8 162.3" stroke="#4a68b1" stroke-linecap="round" stroke-linejoin="round" stroke-width="3" style="fill: none;"/>
</svg>